<svg width="139" height="44" viewBox="0 0 139 44" fill="none" xmlns="http://www.w3.org/2000/svg">
<path fill-rule="evenodd" clip-rule="evenodd" d="M23.8021 0C23.8021 0.0057373 23.8138 0.0172729 23.8138 0.0172729C30.308 0.33374 35.2796 5.61652 35.016 12.0848C34.8285 16.8093 31.9125 20.9009 27.8133 22.8862L30.5716 33.9178L18.6664 33.9006L16.7167 25.5851L14.3334 33.9178H10.0526L13.9642 20.1125H19.41L21.975 30.4824L25.7582 30.4938L23.2225 20.1125V20.0665C27.3685 19.6694 30.7235 16.2454 30.8876 12.0848C31.0575 7.83209 27.8192 4.35052 23.5677 4.08002V4.06281H10.4217L11.5692 0.0115356L23.8021 0ZM21.4012 6.27258H16.7577L20.3236 9.77136H8.80552L1.98912 33.9236H6.24058L11.909 13.9032H20.3236L16.2479 17.615H20.892L26.9759 11.6531L21.4012 6.27258ZM86.9745 9.77136H82.6239L75.8133 33.8603H80.1644L86.9745 9.77136ZM32.3866 25.5851C33.8563 20.0146 37.6449 16.8726 41.8436 16.8726C46.745 16.8726 47.4711 19.8362 46.0834 25.2111L45.5389 27.2424H36.8954C36.3451 29.8033 37.0301 30.4133 39.1092 30.4133C40.5965 30.4133 42.3612 29.8904 43.7601 29.4759C44.0018 29.4042 44.2328 29.3358 44.4496 29.2739L43.3485 33.141C42.1307 33.6704 40.2684 34.3034 37.8851 34.3034C32.7611 34.3034 30.8993 31.2362 32.3924 25.5909L32.3866 25.5851ZM42.5462 24.0256L42.6576 23.617C43.3133 21.3036 42.8627 20.6361 41.182 20.6361C39.5013 20.6361 38.6112 21.2173 37.8148 24.0256H42.5462ZM48.888 17.2524H53.1161L52.9872 27.2424L58.0643 17.2524H62.7782L54.0414 33.866H49.0287L48.888 17.2524ZM90.6932 17.2524H86.4652L86.6058 33.866H91.6185L100.355 17.2524H95.6415L90.5643 27.2424L90.6932 17.2524ZM61.1561 25.5909C62.7196 20.0664 66.5438 16.8784 71.1112 16.8784C75.6786 16.8784 77.5116 20.0607 75.9774 25.4988C74.4139 31.0233 70.6952 34.3034 66.1805 34.3034C61.6659 34.3034 59.6219 31.0233 61.1561 25.5909ZM71.1874 25.6772L71.3456 25.1593C72.534 21.4533 72.0248 20.7109 70.3382 20.7109C68.6517 20.7109 67.7088 21.4533 66.5438 25.0902L66.3915 25.6082C65.1029 29.6191 65.6654 30.4593 67.2699 30.4593C68.8744 30.4593 69.9222 29.6191 71.1874 25.6772ZM102.504 17.2524H106.885L102.182 33.866H97.8021L102.504 17.2524ZM114.409 17.2524H110.094H110.088L105.386 33.866H109.713L113.221 21.5569C114.099 21.0908 114.737 20.8088 115.815 20.8088C116.892 20.8088 117.367 21.085 116.962 22.5237L113.73 33.8603H118.057L121.044 23.3063C122.262 18.996 121.372 16.8726 118.239 16.8726C116.945 16.8726 115.943 17.2121 115.229 17.6609C114.515 18.1099 114.029 18.5875 114.029 18.5875L114.409 17.2524ZM104.606 9.77136H109.01L107.839 13.9147H103.394L104.606 9.77136ZM138.993 17.2466H134.711L134.384 18.363C133.564 17.3618 132.146 16.9647 130.987 16.9647C127.181 16.9647 124.306 20.0089 122.607 25.4816C120.909 30.9542 121.916 33.843 126.004 33.843C127.602 33.843 129.084 33.3193 130.167 32.6633L130.355 32.554C130.355 32.554 129.716 34.148 129.482 34.6084C128.03 37.4254 125.587 37.4058 123.062 37.3856L122.715 37.3831L122.42 37.3821H58.4325L61.1503 34.9077H57.3382L52.349 39.4538L56.6063 44H60.4183L58.2611 41.6981H124.423C128.118 41.6981 132.293 40.8464 133.915 35.0861C135.501 29.452 138.847 17.7571 138.993 17.2466ZM127.515 26.2642C126.402 29.8378 126.929 30.4593 128.557 30.4593L128.551 30.4651C129.517 30.4651 130.472 30.091 131.122 29.6422L133.441 21.4648C132.879 21.0562 132.34 20.8088 131.432 20.8088C130.05 20.8088 129.078 21.3669 128.123 24.4457L127.515 26.2642ZM14.5965 36.7894L10.1107 42.0952H11.3641L12.3065 40.9328H15.7264L16.0604 42.0952H17.4715L15.8085 36.7894H14.5965ZM15.4632 39.9775H13.0975L14.8832 37.8195L15.4632 39.9775ZM20.6044 42.0895L22.0389 36.7894H23.0521L24.7269 39.9948L28.0824 36.7894H29.0897L27.6546 42.0952H26.4955L27.3797 38.8151C27.4149 38.6827 27.4794 38.4986 27.5731 38.2511C27.4632 38.3962 27.3685 38.5165 27.2879 38.612C27.2181 38.6944 27.159 38.7582 27.1102 38.8036L24.3641 41.4565H24.1122L22.8006 38.7921C22.7069 38.6022 22.6483 38.418 22.6249 38.2454C22.5897 38.4583 22.5487 38.6482 22.5018 38.8093L21.6175 42.0895H20.6044ZM32.224 42.0895L32.2225 42.0952L32.2167 42.0895H32.224ZM32.224 42.0895L33.6571 36.7894H39.1791L38.9335 37.6929H34.6644L34.3421 38.8726H36.8309L36.5848 39.7761H34.0965L33.7391 41.0939H38.0609L37.7914 42.0895H32.224ZM48.8236 37.7159C48.8763 37.3994 48.847 37.1693 48.724 37.0369C48.5721 36.87 48.244 36.7894 47.7523 36.7894H44.6893C44.1742 36.7894 43.7997 36.8758 43.5653 37.0484C43.3309 37.2211 43.1493 37.5491 43.0145 38.0439L42.8568 38.6309C42.722 39.1259 42.7279 39.4596 42.8685 39.6265C43.0087 39.7991 43.3368 39.8854 43.8578 39.8854H47.225L46.8973 41.0997H41.9842C41.9198 41.4449 41.9374 41.6982 42.0546 41.842C42.2005 42.0146 42.5287 42.101 43.0438 42.101H46.3817C46.8973 42.101 47.2777 42.0146 47.5121 41.842C47.6166 41.7671 47.7098 41.6629 47.7928 41.5285C47.9007 41.3532 47.9921 41.1266 48.0682 40.8465L48.2674 40.1157C48.4022 39.6207 48.3963 39.2927 48.2499 39.1201C48.1034 38.9474 47.7699 38.8611 47.2543 38.8611H43.8812L44.1918 37.7217H48.8295L48.8236 37.7159ZM5.51988 39.9142H3.47008L3.46422 39.9084L3.71031 39.005H6.98375L6.49205 40.835C6.35728 41.3298 6.17564 41.6579 5.94127 41.8305C5.70738 42.0032 5.33238 42.0895 4.81724 42.0895H1.09263C0.577498 42.0895 0.249373 42.0032 0.109236 41.8305C-0.031389 41.6579 -0.0372484 41.3298 0.0975173 40.835L0.852888 38.0382C0.987166 37.5433 1.16881 37.2153 1.40318 37.0427C1.63756 36.87 2.01207 36.7837 2.52769 36.7837H6.25181C6.75523 36.7837 7.0775 36.87 7.22984 37.0369C7.34703 37.175 7.37633 37.4109 7.31773 37.7332H2.18785L1.28013 41.0939H5.19762L5.51988 39.9142Z" fill="white"/>
</svg>
